<svg xmlns="http://www.w3.org/2000/svg" viewBox="0 0 512 512">
  <defs>
    <linearGradient id="grad1" x1="0%" y1="0%" x2="100%" y2="100%">
      <stop offset="0%" style="stop-color:#6366f1;stop-opacity:1" />
      <stop offset="100%" style="stop-color:#8b5cf6;stop-opacity:1" />
    </linearGradient>
    <linearGradient id="grad2" x1="0%" y1="100%" x2="100%" y2="0%">
      <stop offset="0%" style="stop-color:#06b6d4;stop-opacity:1" />
      <stop offset="100%" style="stop-color:#6366f1;stop-opacity:1" />
    </linearGradient>
  </defs>

  <!-- Background circle -->
  <circle cx="256" cy="256" r="240" fill="url(#grad1)"/>

  <!-- Rocket body -->
  <path d="M256 80 L320 200 L320 340 L256 380 L192 340 L192 200 Z" fill="#ffffff" opacity="0.95"/>

  <!-- Rocket window -->
  <circle cx="256" cy="200" r="40" fill="url(#grad2)"/>
  <circle cx="256" cy="200" r="25" fill="#ffffff" opacity="0.3"/>

  <!-- Rocket fins -->
  <path d="M192 280 L140 360 L192 340 Z" fill="#ffffff" opacity="0.8"/>
  <path d="M320 280 L372 360 L320 340 Z" fill="#ffffff" opacity="0.8"/>

  <!-- Rocket flames -->
  <ellipse cx="256" cy="420" rx="50" ry="30" fill="#06b6d4" opacity="0.9"/>
  <ellipse cx="256" cy="410" rx="35" ry="20" fill="#ffffff" opacity="0.8"/>

  <!-- Speed lines -->
  <rect x="100" y="140" width="60" height="6" rx="3" fill="#ffffff" opacity="0.4"/>
  <rect x="80" y="180" width="80" height="6" rx="3" fill="#ffffff" opacity="0.3"/>
  <rect x="352" y="160" width="70" height="6" rx="3" fill="#ffffff" opacity="0.4"/>
  <rect x="362" y="200" width="60" height="6" rx="3" fill="#ffffff" opacity="0.3"/>
</svg>